<?xml version="1.0" encoding="UTF-8" standalone="no"?>
<!DOCTYPE svg PUBLIC "-//W3C//DTD SVG 1.1//EN" "http://www.w3.org/Graphics/SVG/1.1/DTD/svg11.dtd">
<svg width="100%" height="100%" viewBox="0 0 500 500" version="1.1" xmlns="http://www.w3.org/2000/svg" xmlns:xlink="http://www.w3.org/1999/xlink" xml:space="preserve" xmlns:serif="http://www.serif.com/" style="fill-rule:evenodd;clip-rule:evenodd;stroke-linejoin:round;stroke-miterlimit:2;">
    <g id="Icon">
        <g id="Table" transform="matrix(1.0731,0,0,1.0731,-7.27862,-8.15358)">
            <g id="Background" transform="matrix(0.9969,0,0,0.975462,2.72754,2.50072)">
                <path d="M401.093,54.951C406.593,56.174 408.096,56.193 413.255,58.601C424.836,64.006 433.898,74.694 437.485,87.178C439.083,92.74 438.887,94.262 439.288,100L439.288,388.112C438.887,393.85 439.083,395.372 437.485,400.934C433.304,415.484 421.599,427.49 407.302,431.78C401.859,433.413 400.37,433.213 394.755,433.624L80.769,433.624C75.155,433.213 73.665,433.413 68.223,431.78C53.985,427.508 42.238,415.546 38.04,400.934C36.442,395.372 36.638,393.85 36.236,388.112L36.236,100C36.638,94.262 36.442,92.74 38.04,87.178C42.223,72.617 53.925,60.622 68.223,56.332C73.665,54.698 75.155,54.898 80.769,54.488L394.755,54.488C396.868,54.642 398.98,54.797 401.093,54.951Z" style="fill:rgb(141,153,174);"/>
            </g>
            <g id="Background1" serif:id="Background" transform="matrix(0.93188,0,0,0.93188,6.7828,7.59815)">
                <path d="M107.965,448.434L88.163,414.136L111.384,400.729L88.163,360.509L111.396,347.096L88.163,306.855L111.4,293.439L88.163,253.192L111.396,239.778L88.163,199.537L111.067,186.314L88.163,146.643L130.029,122.472L130.109,116.977L380.328,105.564L411.905,87.334L465.587,180.315L465.587,400.793C465.158,406.799 465.367,408.393 463.658,414.215C459.185,429.446 446.664,442.013 431.369,446.504C425.547,448.213 423.953,448.004 417.947,448.434L107.965,448.434Z" style="fill:rgb(43,45,66);fill-opacity:0.9;"/>
            </g>
            <g id="Header" transform="matrix(1.01021,0,0,0.725862,26.0549,15.8489)">
                <path d="M359.016,98.902L360.138,99.652L360.888,100.774L361.152,102.098L361.152,175.524L360.888,176.848L360.138,177.971L359.016,178.721L357.692,178.984L65.385,178.984L64.061,178.721C62.946,177.976 62.933,177.963 62.189,176.848L61.925,175.524L61.925,102.098L62.189,100.774L62.938,99.652L64.061,98.902L65.385,98.639L357.692,98.639C358.134,98.726 358.575,98.814 359.016,98.902Z" style="fill:rgb(237,242,244);"/>
            </g>
            <g id="LeftTop" transform="matrix(0.305506,0,0,0.409838,69.6937,120.633)">
                <path d="M359.016,98.902L360.138,99.652L360.888,100.774L361.152,102.098L361.152,175.524L360.888,176.848L360.138,177.971L359.016,178.721L357.692,178.984L65.385,178.984L64.061,178.721C62.946,177.976 62.933,177.963 62.189,176.848L61.925,175.524L61.925,102.098L62.189,100.774L62.938,99.652L64.061,98.902L65.385,98.639L357.692,98.639C358.134,98.726 358.575,98.814 359.016,98.902Z" style="fill:rgb(237,242,244);"/>
            </g>
            <g id="RightTop" transform="matrix(0.305506,0,0,0.409838,175.126,120.633)">
                <path d="M359.016,98.902L360.138,99.652L360.888,100.774L361.152,102.098L361.152,175.524L360.888,176.848L360.138,177.971L359.016,178.721L357.692,178.984L65.385,178.984L64.061,178.721C62.946,177.976 62.933,177.963 62.189,176.848L61.925,175.524L61.925,102.098L62.189,100.774L62.938,99.652L64.061,98.902L65.385,98.639L357.692,98.639C358.134,98.726 358.575,98.814 359.016,98.902Z" style="fill:rgb(237,242,244);"/>
            </g>
            <g id="RightTop1" serif:id="RightTop" transform="matrix(0.305506,0,0,0.409838,280.559,120.633)">
                <path d="M359.016,98.902L360.138,99.652L360.888,100.774L361.152,102.098L361.152,175.524L360.888,176.848L360.138,177.971L359.016,178.721L357.692,178.984L65.385,178.984L64.061,178.721C62.946,177.976 62.933,177.963 62.189,176.848L61.925,175.524L61.925,102.098L62.189,100.774L62.938,99.652L64.061,98.902L65.385,98.639L357.692,98.639C358.134,98.726 358.575,98.814 359.016,98.902Z" style="fill:rgb(237,242,244);"/>
            </g>
            <g id="LeftTop1" serif:id="LeftTop" transform="matrix(0.305506,0,0,0.409838,69.6937,170.633)">
                <path d="M359.016,98.902L360.138,99.652L360.888,100.774L361.152,102.098L361.152,175.524L360.888,176.848L360.138,177.971L359.016,178.721L357.692,178.984L65.385,178.984L64.061,178.721C62.946,177.976 62.933,177.963 62.189,176.848L61.925,175.524L61.925,102.098L62.189,100.774L62.938,99.652L64.061,98.902L65.385,98.639L357.692,98.639C358.134,98.726 358.575,98.814 359.016,98.902Z" style="fill:rgb(237,242,244);"/>
            </g>
            <g id="RightTop2" serif:id="RightTop" transform="matrix(0.305506,0,0,0.409838,175.126,170.633)">
                <path d="M359.016,98.902L360.138,99.652L360.888,100.774L361.152,102.098L361.152,175.524L360.888,176.848L360.138,177.971L359.016,178.721L357.692,178.984L65.385,178.984L64.061,178.721C62.946,177.976 62.933,177.963 62.189,176.848L61.925,175.524L61.925,102.098L62.189,100.774L62.938,99.652L64.061,98.902L65.385,98.639L357.692,98.639C358.134,98.726 358.575,98.814 359.016,98.902Z" style="fill:rgb(237,242,244);"/>
            </g>
            <g id="RightTop3" serif:id="RightTop" transform="matrix(0.305506,0,0,0.409838,280.559,170.633)">
                <path d="M359.016,98.902L360.138,99.652L360.888,100.774L361.152,102.098L361.152,175.524L360.888,176.848L360.138,177.971L359.016,178.721L357.692,178.984L65.385,178.984L64.061,178.721C62.946,177.976 62.933,177.963 62.189,176.848L61.925,175.524L61.925,102.098L62.189,100.774L62.938,99.652L64.061,98.902L65.385,98.639L357.692,98.639C358.134,98.726 358.575,98.814 359.016,98.902Z" style="fill:rgb(237,242,244);"/>
            </g>
            <g id="LeftTop2" serif:id="LeftTop" transform="matrix(0.305506,0,0,0.409838,69.6937,220.633)">
                <path d="M359.016,98.902L360.138,99.652L360.888,100.774L361.152,102.098L361.152,175.524L360.888,176.848L360.138,177.971L359.016,178.721L357.692,178.984L65.385,178.984L64.061,178.721C62.946,177.976 62.933,177.963 62.189,176.848L61.925,175.524L61.925,102.098L62.189,100.774L62.938,99.652L64.061,98.902L65.385,98.639L357.692,98.639C358.134,98.726 358.575,98.814 359.016,98.902Z" style="fill:rgb(237,242,244);"/>
            </g>
            <g id="RightTop4" serif:id="RightTop" transform="matrix(0.305506,0,0,0.409838,175.126,220.633)">
                <path d="M359.016,98.902L360.138,99.652L360.888,100.774L361.152,102.098L361.152,175.524L360.888,176.848L360.138,177.971L359.016,178.721L357.692,178.984L65.385,178.984L64.061,178.721C62.946,177.976 62.933,177.963 62.189,176.848L61.925,175.524L61.925,102.098L62.189,100.774L62.938,99.652L64.061,98.902L65.385,98.639L357.692,98.639C358.134,98.726 358.575,98.814 359.016,98.902Z" style="fill:rgb(237,242,244);"/>
            </g>
            <g id="RightTop5" serif:id="RightTop" transform="matrix(0.305506,0,0,0.409838,280.559,220.633)">
                <path d="M359.016,98.902L360.138,99.652L360.888,100.774L361.152,102.098L361.152,175.524L360.888,176.848L360.138,177.971L359.016,178.721L357.692,178.984L65.385,178.984L64.061,178.721C62.946,177.976 62.933,177.963 62.189,176.848L61.925,175.524L61.925,102.098L62.189,100.774L62.938,99.652L64.061,98.902L65.385,98.639L357.692,98.639C358.134,98.726 358.575,98.814 359.016,98.902Z" style="fill:rgb(237,242,244);"/>
            </g>
            <g id="LeftTop3" serif:id="LeftTop" transform="matrix(0.305506,0,0,0.409838,69.6937,270.633)">
                <path d="M359.016,98.902L360.138,99.652L360.888,100.774L361.152,102.098L361.152,175.524L360.888,176.848L360.138,177.971L359.016,178.721L357.692,178.984L65.385,178.984L64.061,178.721C62.946,177.976 62.933,177.963 62.189,176.848L61.925,175.524L61.925,102.098L62.189,100.774L62.938,99.652L64.061,98.902L65.385,98.639L357.692,98.639C358.134,98.726 358.575,98.814 359.016,98.902Z" style="fill:rgb(237,242,244);"/>
            </g>
            <g id="RightTop6" serif:id="RightTop" transform="matrix(0.305506,0,0,0.409838,175.126,270.633)">
                <path d="M359.016,98.902L360.138,99.652L360.888,100.774L361.152,102.098L361.152,175.524L360.888,176.848L360.138,177.971L359.016,178.721L357.692,178.984L65.385,178.984L64.061,178.721C62.946,177.976 62.933,177.963 62.189,176.848L61.925,175.524L61.925,102.098L62.189,100.774L62.938,99.652L64.061,98.902L65.385,98.639L357.692,98.639C358.134,98.726 358.575,98.814 359.016,98.902Z" style="fill:rgb(237,242,244);"/>
            </g>
            <g id="RightTop7" serif:id="RightTop" transform="matrix(0.305506,0,0,0.409838,280.559,270.633)">
                <path d="M359.016,98.902L360.138,99.652L360.888,100.774L361.152,102.098L361.152,175.524L360.888,176.848L360.138,177.971L359.016,178.721L357.692,178.984L65.385,178.984L64.061,178.721C62.946,177.976 62.933,177.963 62.189,176.848L61.925,175.524L61.925,102.098L62.189,100.774L62.938,99.652L64.061,98.902L65.385,98.639L357.692,98.639C358.134,98.726 358.575,98.814 359.016,98.902Z" style="fill:rgb(237,242,244);"/>
            </g>
            <g id="LeftTop4" serif:id="LeftTop" transform="matrix(0.305506,0,0,0.409838,69.6937,320.633)">
                <path d="M359.016,98.902L360.138,99.652L360.888,100.774L361.152,102.098L361.152,175.524L360.888,176.848L360.138,177.971L359.016,178.721L357.692,178.984L65.385,178.984L64.061,178.721C62.946,177.976 62.933,177.963 62.189,176.848L61.925,175.524L61.925,102.098L62.189,100.774L62.938,99.652L64.061,98.902L65.385,98.639L357.692,98.639C358.134,98.726 358.575,98.814 359.016,98.902Z" style="fill:rgb(237,242,244);"/>
            </g>
            <g id="RightTop8" serif:id="RightTop" transform="matrix(0.305506,0,0,0.409838,175.126,320.633)">
                <path d="M359.016,98.902L360.138,99.652L360.888,100.774L361.152,102.098L361.152,175.524L360.888,176.848L360.138,177.971L359.016,178.721L357.692,178.984L65.385,178.984L64.061,178.721C62.946,177.976 62.933,177.963 62.189,176.848L61.925,175.524L61.925,102.098L62.189,100.774L62.938,99.652L64.061,98.902L65.385,98.639L357.692,98.639C358.134,98.726 358.575,98.814 359.016,98.902Z" style="fill:rgb(237,242,244);"/>
            </g>
            <g id="RightTop9" serif:id="RightTop" transform="matrix(0.305506,0,0,0.409838,280.559,320.633)">
                <path d="M359.016,98.902L360.138,99.652L360.888,100.774L361.152,102.098L361.152,175.524L360.888,176.848L360.138,177.971L359.016,178.721L357.692,178.984L65.385,178.984L64.061,178.721C62.946,177.976 62.933,177.963 62.189,176.848L61.925,175.524L61.925,102.098L62.189,100.774L62.938,99.652L64.061,98.902L65.385,98.639L357.692,98.639C358.134,98.726 358.575,98.814 359.016,98.902Z" style="fill:rgb(237,242,244);"/>
            </g>
        </g>
        <g id="MergeArrow" transform="matrix(0.69581,0,0,0.557198,166.124,293.169)">
            <path d="M227.183,230.825C227.183,230.825 204.141,208.875 192.848,197.666C177.608,182.54 159.987,164.753 118.146,165.586C98.673,165.974 59.714,165.357 59.714,165.357L60.594,100.758C282.043,90.598 203.464,214.713 369.009,197.973C369.009,197.973 342.972,170.615 336.502,164.038C330.857,158.299 334.849,149.365 342.515,149.373C353.479,149.384 374.614,149.629 385.787,149.84C391.785,149.953 398.397,151.632 402.799,155.706C415.565,167.524 448.905,202.099 463.507,216.242C468.758,221.328 471.46,227.275 471.485,230.825C471.46,234.375 468.758,240.322 463.507,245.408C448.905,259.551 415.565,294.126 402.799,305.944C398.397,310.019 391.785,311.697 385.787,311.81C374.614,312.021 353.479,312.266 342.515,312.278C334.849,312.286 330.857,303.351 336.502,297.612C342.972,291.035 369.009,263.678 369.009,263.678C203.464,246.938 282.043,371.052 60.594,360.893L59.714,296.294C59.714,296.294 98.673,295.677 118.146,296.064C159.987,296.898 177.608,279.11 192.848,263.984C204.125,252.791 227.118,230.887 227.183,230.825Z" style="fill:rgb(239,35,60);"/>
        </g>
    </g>
</svg>
